<mxfile host="app.diagrams.net" modified="2021-02-14T13:27:29.728Z" agent="5.0 (Windows NT 10.0; Win64; x64) AppleWebKit/537.36 (KHTML, like Gecko) Chrome/88.0.4324.150 Safari/537.36" etag="8eufVy-tdvO5bH6pfkAz" version="14.3.1" type="github">
  <diagram id="C5RBs43oDa-KdzZeNtuy" name="Page-1">
    <mxGraphModel dx="2595" dy="1370" grid="1" gridSize="10" guides="1" tooltips="1" connect="1" arrows="1" fold="1" page="1" pageScale="1" pageWidth="827" pageHeight="1169" math="0" shadow="0">
      <root>
        <mxCell id="WIyWlLk6GJQsqaUBKTNV-0" />
        <mxCell id="WIyWlLk6GJQsqaUBKTNV-1" parent="WIyWlLk6GJQsqaUBKTNV-0" />
        <mxCell id="WIyWlLk6GJQsqaUBKTNV-2" value="" style="rounded=0;html=1;jettySize=auto;orthogonalLoop=1;fontSize=11;endArrow=block;endFill=0;endSize=8;strokeWidth=1;shadow=0;labelBackgroundColor=none;edgeStyle=orthogonalEdgeStyle;entryX=0.5;entryY=0;entryDx=0;entryDy=0;" parent="WIyWlLk6GJQsqaUBKTNV-1" source="WIyWlLk6GJQsqaUBKTNV-3" target="WIyWlLk6GJQsqaUBKTNV-6" edge="1">
          <mxGeometry relative="1" as="geometry" />
        </mxCell>
        <mxCell id="WIyWlLk6GJQsqaUBKTNV-3" value="Payroll Manager Creates a Request" style="rounded=1;whiteSpace=wrap;html=1;fontSize=12;glass=0;strokeWidth=1;shadow=0;" parent="WIyWlLk6GJQsqaUBKTNV-1" vertex="1">
          <mxGeometry x="335.38" width="120" height="40" as="geometry" />
        </mxCell>
        <mxCell id="WIyWlLk6GJQsqaUBKTNV-4" value="Yes" style="rounded=0;html=1;jettySize=auto;orthogonalLoop=1;fontSize=11;endArrow=block;endFill=0;endSize=8;strokeWidth=1;shadow=0;labelBackgroundColor=none;edgeStyle=orthogonalEdgeStyle;entryX=0.5;entryY=0;entryDx=0;entryDy=0;" parent="WIyWlLk6GJQsqaUBKTNV-1" source="WIyWlLk6GJQsqaUBKTNV-6" target="Q8JQTxx8B9CcguM59kPZ-0" edge="1">
          <mxGeometry y="20" relative="1" as="geometry">
            <mxPoint as="offset" />
            <mxPoint x="145" y="340" as="targetPoint" />
            <Array as="points" />
          </mxGeometry>
        </mxCell>
        <mxCell id="Q8JQTxx8B9CcguM59kPZ-4" value="" style="edgeStyle=orthogonalEdgeStyle;rounded=0;orthogonalLoop=1;jettySize=auto;html=1;entryX=0;entryY=0.5;entryDx=0;entryDy=0;" edge="1" parent="WIyWlLk6GJQsqaUBKTNV-1" source="WIyWlLk6GJQsqaUBKTNV-6" target="Q8JQTxx8B9CcguM59kPZ-3">
          <mxGeometry relative="1" as="geometry">
            <Array as="points">
              <mxPoint x="290" y="134" />
              <mxPoint x="290" y="390" />
            </Array>
          </mxGeometry>
        </mxCell>
        <mxCell id="Q8JQTxx8B9CcguM59kPZ-5" value="No" style="edgeLabel;html=1;align=center;verticalAlign=middle;resizable=0;points=[];" vertex="1" connectable="0" parent="Q8JQTxx8B9CcguM59kPZ-4">
          <mxGeometry x="-0.2821" y="-1" relative="1" as="geometry">
            <mxPoint as="offset" />
          </mxGeometry>
        </mxCell>
        <mxCell id="WIyWlLk6GJQsqaUBKTNV-6" value="Is Payroll Manager a CEO" style="rhombus;whiteSpace=wrap;html=1;shadow=0;fontFamily=Helvetica;fontSize=12;align=center;strokeWidth=1;spacing=6;spacingTop=-4;" parent="WIyWlLk6GJQsqaUBKTNV-1" vertex="1">
          <mxGeometry x="90" y="64" width="150" height="140" as="geometry" />
        </mxCell>
        <mxCell id="Q8JQTxx8B9CcguM59kPZ-2" value="" style="edgeStyle=orthogonalEdgeStyle;rounded=0;orthogonalLoop=1;jettySize=auto;html=1;" edge="1" parent="WIyWlLk6GJQsqaUBKTNV-1" source="Q8JQTxx8B9CcguM59kPZ-0" target="Q8JQTxx8B9CcguM59kPZ-1">
          <mxGeometry relative="1" as="geometry" />
        </mxCell>
        <UserObject label="Finance Team take action" lucidchartObjectId="KdWalsSdiw4K" id="Q8JQTxx8B9CcguM59kPZ-0">
          <mxCell style="html=1;overflow=block;blockSpacing=1;whiteSpace=wrap;;whiteSpace=wrap;fontSize=16;fontColor=#333333;spacing=9;strokeColor=#0c7cba;strokeOpacity=100;rounded=1;absoluteArcSize=1;arcSize=9;strokeWidth=2;" vertex="1" parent="WIyWlLk6GJQsqaUBKTNV-1">
            <mxGeometry x="96.25" y="1010" width="137.5" height="50" as="geometry" />
          </mxCell>
        </UserObject>
        <UserObject label="Raise is Applied" lucidchartObjectId="rJVaWQaTZlaL" id="Q8JQTxx8B9CcguM59kPZ-1">
          <mxCell style="html=1;overflow=block;blockSpacing=1;whiteSpace=wrap;rounded=1;arcSize=50;whiteSpace=wrap;fontSize=16;fontColor=#333333;spacing=4;strokeColor=#5e5e5e;strokeOpacity=100;fillOpacity=100;fillColor=#c7e8ac;strokeWidth=2;" vertex="1" parent="WIyWlLk6GJQsqaUBKTNV-1">
            <mxGeometry x="86.25" y="1096" width="157.5" height="39" as="geometry" />
          </mxCell>
        </UserObject>
        <mxCell id="Q8JQTxx8B9CcguM59kPZ-10" style="edgeStyle=orthogonalEdgeStyle;rounded=0;orthogonalLoop=1;jettySize=auto;html=1;entryX=0.5;entryY=0;entryDx=0;entryDy=0;" edge="1" parent="WIyWlLk6GJQsqaUBKTNV-1" source="Q8JQTxx8B9CcguM59kPZ-3" target="Q8JQTxx8B9CcguM59kPZ-7">
          <mxGeometry relative="1" as="geometry" />
        </mxCell>
        <mxCell id="Q8JQTxx8B9CcguM59kPZ-11" value="Yes" style="edgeLabel;html=1;align=center;verticalAlign=middle;resizable=0;points=[];" vertex="1" connectable="0" parent="Q8JQTxx8B9CcguM59kPZ-10">
          <mxGeometry x="-0.0618" y="2" relative="1" as="geometry">
            <mxPoint as="offset" />
          </mxGeometry>
        </mxCell>
        <mxCell id="Q8JQTxx8B9CcguM59kPZ-14" style="edgeStyle=orthogonalEdgeStyle;rounded=0;orthogonalLoop=1;jettySize=auto;html=1;exitX=0.5;exitY=0;exitDx=0;exitDy=0;" edge="1" parent="WIyWlLk6GJQsqaUBKTNV-1" source="Q8JQTxx8B9CcguM59kPZ-3" target="Q8JQTxx8B9CcguM59kPZ-13">
          <mxGeometry relative="1" as="geometry">
            <mxPoint x="390" y="310" as="sourcePoint" />
            <Array as="points">
              <mxPoint x="395" y="134" />
            </Array>
          </mxGeometry>
        </mxCell>
        <mxCell id="Q8JQTxx8B9CcguM59kPZ-28" value="No" style="edgeLabel;html=1;align=center;verticalAlign=middle;resizable=0;points=[];" vertex="1" connectable="0" parent="Q8JQTxx8B9CcguM59kPZ-14">
          <mxGeometry x="-0.4428" y="-2" relative="1" as="geometry">
            <mxPoint as="offset" />
          </mxGeometry>
        </mxCell>
        <mxCell id="Q8JQTxx8B9CcguM59kPZ-3" value="Is Payroll Manager a UnitHead / Reports to CEO" style="rhombus;whiteSpace=wrap;html=1;shadow=0;fontFamily=Helvetica;fontSize=12;align=center;strokeWidth=1;spacing=6;spacingTop=-4;" vertex="1" parent="WIyWlLk6GJQsqaUBKTNV-1">
          <mxGeometry x="319.99" y="322" width="150.77" height="136" as="geometry" />
        </mxCell>
        <mxCell id="Q8JQTxx8B9CcguM59kPZ-30" style="edgeStyle=orthogonalEdgeStyle;rounded=0;orthogonalLoop=1;jettySize=auto;html=1;entryX=0.5;entryY=0;entryDx=0;entryDy=0;" edge="1" parent="WIyWlLk6GJQsqaUBKTNV-1" source="Q8JQTxx8B9CcguM59kPZ-7" target="Q8JQTxx8B9CcguM59kPZ-29">
          <mxGeometry relative="1" as="geometry" />
        </mxCell>
        <mxCell id="Q8JQTxx8B9CcguM59kPZ-31" value="Yes" style="edgeLabel;html=1;align=center;verticalAlign=middle;resizable=0;points=[];" vertex="1" connectable="0" parent="Q8JQTxx8B9CcguM59kPZ-30">
          <mxGeometry x="-0.3009" y="2" relative="1" as="geometry">
            <mxPoint as="offset" />
          </mxGeometry>
        </mxCell>
        <mxCell id="Q8JQTxx8B9CcguM59kPZ-34" style="edgeStyle=orthogonalEdgeStyle;rounded=0;orthogonalLoop=1;jettySize=auto;html=1;entryX=0.609;entryY=0;entryDx=0;entryDy=0;entryPerimeter=0;" edge="1" parent="WIyWlLk6GJQsqaUBKTNV-1" source="Q8JQTxx8B9CcguM59kPZ-7" target="Q8JQTxx8B9CcguM59kPZ-0">
          <mxGeometry relative="1" as="geometry" />
        </mxCell>
        <mxCell id="Q8JQTxx8B9CcguM59kPZ-35" value="No" style="edgeLabel;html=1;align=center;verticalAlign=middle;resizable=0;points=[];" vertex="1" connectable="0" parent="Q8JQTxx8B9CcguM59kPZ-34">
          <mxGeometry x="-0.8369" y="3" relative="1" as="geometry">
            <mxPoint as="offset" />
          </mxGeometry>
        </mxCell>
        <mxCell id="Q8JQTxx8B9CcguM59kPZ-7" value="&lt;span style=&quot;color: rgb(94 , 94 , 94)&quot;&gt;Is new gross value &amp;gt; Employee Level Range&lt;/span&gt;" style="rhombus;whiteSpace=wrap;html=1;shadow=0;fontFamily=Helvetica;fontSize=12;align=center;strokeWidth=1;spacing=6;spacingTop=-4;" vertex="1" parent="WIyWlLk6GJQsqaUBKTNV-1">
          <mxGeometry x="319.99" y="590" width="150.77" height="136" as="geometry" />
        </mxCell>
        <mxCell id="Q8JQTxx8B9CcguM59kPZ-16" style="edgeStyle=orthogonalEdgeStyle;rounded=0;orthogonalLoop=1;jettySize=auto;html=1;entryX=0.5;entryY=0;entryDx=0;entryDy=0;" edge="1" parent="WIyWlLk6GJQsqaUBKTNV-1" source="Q8JQTxx8B9CcguM59kPZ-13" target="Q8JQTxx8B9CcguM59kPZ-15">
          <mxGeometry relative="1" as="geometry" />
        </mxCell>
        <mxCell id="Q8JQTxx8B9CcguM59kPZ-13" value="Payroll Manager is a Normal Manager" style="shape=document;whiteSpace=wrap;html=1;boundedLbl=1;" vertex="1" parent="WIyWlLk6GJQsqaUBKTNV-1">
          <mxGeometry x="670" y="101" width="120" height="66" as="geometry" />
        </mxCell>
        <mxCell id="Q8JQTxx8B9CcguM59kPZ-18" style="edgeStyle=orthogonalEdgeStyle;rounded=0;orthogonalLoop=1;jettySize=auto;html=1;entryX=0.5;entryY=0;entryDx=0;entryDy=0;" edge="1" parent="WIyWlLk6GJQsqaUBKTNV-1" source="Q8JQTxx8B9CcguM59kPZ-15" target="Q8JQTxx8B9CcguM59kPZ-17">
          <mxGeometry relative="1" as="geometry" />
        </mxCell>
        <mxCell id="Q8JQTxx8B9CcguM59kPZ-19" value="Pending on Action" style="edgeLabel;html=1;align=center;verticalAlign=middle;resizable=0;points=[];" vertex="1" connectable="0" parent="Q8JQTxx8B9CcguM59kPZ-18">
          <mxGeometry x="0.8229" y="2" relative="1" as="geometry">
            <mxPoint x="-2" y="-33.67" as="offset" />
          </mxGeometry>
        </mxCell>
        <mxCell id="Q8JQTxx8B9CcguM59kPZ-15" value="Escalate to his Manager" style="rounded=1;whiteSpace=wrap;html=1;fontSize=12;glass=0;strokeWidth=1;shadow=0;" vertex="1" parent="WIyWlLk6GJQsqaUBKTNV-1">
          <mxGeometry x="670" y="240" width="120" height="40" as="geometry" />
        </mxCell>
        <mxCell id="Q8JQTxx8B9CcguM59kPZ-21" style="edgeStyle=orthogonalEdgeStyle;rounded=0;orthogonalLoop=1;jettySize=auto;html=1;entryX=0.5;entryY=0;entryDx=0;entryDy=0;" edge="1" parent="WIyWlLk6GJQsqaUBKTNV-1" source="Q8JQTxx8B9CcguM59kPZ-17" target="Q8JQTxx8B9CcguM59kPZ-20">
          <mxGeometry relative="1" as="geometry" />
        </mxCell>
        <mxCell id="Q8JQTxx8B9CcguM59kPZ-22" value="No" style="edgeLabel;html=1;align=center;verticalAlign=middle;resizable=0;points=[];" vertex="1" connectable="0" parent="Q8JQTxx8B9CcguM59kPZ-21">
          <mxGeometry x="-0.8486" relative="1" as="geometry">
            <mxPoint as="offset" />
          </mxGeometry>
        </mxCell>
        <mxCell id="Q8JQTxx8B9CcguM59kPZ-24" style="edgeStyle=orthogonalEdgeStyle;rounded=0;orthogonalLoop=1;jettySize=auto;html=1;entryX=1;entryY=0.5;entryDx=0;entryDy=0;" edge="1" parent="WIyWlLk6GJQsqaUBKTNV-1" source="Q8JQTxx8B9CcguM59kPZ-17" target="Q8JQTxx8B9CcguM59kPZ-3">
          <mxGeometry relative="1" as="geometry">
            <mxPoint x="621.53" y="390" as="targetPoint" />
          </mxGeometry>
        </mxCell>
        <mxCell id="Q8JQTxx8B9CcguM59kPZ-25" value="Yes" style="edgeLabel;html=1;align=center;verticalAlign=middle;resizable=0;points=[];" vertex="1" connectable="0" parent="Q8JQTxx8B9CcguM59kPZ-24">
          <mxGeometry x="-0.2848" y="-2" relative="1" as="geometry">
            <mxPoint as="offset" />
          </mxGeometry>
        </mxCell>
        <mxCell id="Q8JQTxx8B9CcguM59kPZ-17" value="Did he approve?" style="rhombus;whiteSpace=wrap;html=1;" vertex="1" parent="WIyWlLk6GJQsqaUBKTNV-1">
          <mxGeometry x="690" y="350" width="80" height="80" as="geometry" />
        </mxCell>
        <UserObject label="Request is Denied" lucidchartObjectId="mKVaoxjv1l-B" id="Q8JQTxx8B9CcguM59kPZ-20">
          <mxCell style="html=1;overflow=block;blockSpacing=1;whiteSpace=wrap;rounded=1;arcSize=50;whiteSpace=wrap;fontSize=16;fontColor=#333333;spacing=4;strokeColor=#5e5e5e;strokeOpacity=100;fillOpacity=100;fillColor=#ffbbb1;strokeWidth=2;" vertex="1" parent="WIyWlLk6GJQsqaUBKTNV-1">
            <mxGeometry x="880" y="1095.5" width="155.5" height="40" as="geometry" />
          </mxCell>
        </UserObject>
        <mxCell id="Q8JQTxx8B9CcguM59kPZ-32" style="edgeStyle=orthogonalEdgeStyle;rounded=0;orthogonalLoop=1;jettySize=auto;html=1;entryX=0.75;entryY=0;entryDx=0;entryDy=0;" edge="1" parent="WIyWlLk6GJQsqaUBKTNV-1" source="Q8JQTxx8B9CcguM59kPZ-29" target="Q8JQTxx8B9CcguM59kPZ-0">
          <mxGeometry relative="1" as="geometry" />
        </mxCell>
        <mxCell id="Q8JQTxx8B9CcguM59kPZ-37" value="Yes" style="edgeLabel;html=1;align=center;verticalAlign=middle;resizable=0;points=[];" vertex="1" connectable="0" parent="Q8JQTxx8B9CcguM59kPZ-32">
          <mxGeometry x="-0.6798" relative="1" as="geometry">
            <mxPoint as="offset" />
          </mxGeometry>
        </mxCell>
        <mxCell id="Q8JQTxx8B9CcguM59kPZ-38" style="edgeStyle=orthogonalEdgeStyle;rounded=0;orthogonalLoop=1;jettySize=auto;html=1;entryX=0;entryY=0.5;entryDx=0;entryDy=0;" edge="1" parent="WIyWlLk6GJQsqaUBKTNV-1" source="Q8JQTxx8B9CcguM59kPZ-29" target="Q8JQTxx8B9CcguM59kPZ-36">
          <mxGeometry relative="1" as="geometry" />
        </mxCell>
        <mxCell id="Q8JQTxx8B9CcguM59kPZ-39" value="No" style="edgeLabel;html=1;align=center;verticalAlign=middle;resizable=0;points=[];" vertex="1" connectable="0" parent="Q8JQTxx8B9CcguM59kPZ-38">
          <mxGeometry x="0.2472" y="-5" relative="1" as="geometry">
            <mxPoint y="-5" as="offset" />
          </mxGeometry>
        </mxCell>
        <mxCell id="Q8JQTxx8B9CcguM59kPZ-29" value="&lt;span data-lucid-type=&quot;application/vnd.lucid.text&quot; data-lucid-content=&quot;{&amp;#34;t&amp;#34;:&amp;#34;Is it within the excluded salary levels ?&amp;#34;,&amp;#34;m&amp;#34;:[{&amp;#34;s&amp;#34;:0,&amp;#34;n&amp;#34;:&amp;#34;c&amp;#34;,&amp;#34;v&amp;#34;:&amp;#34;#5e5e5eff&amp;#34;,&amp;#34;e&amp;#34;:41},{&amp;#34;s&amp;#34;:0,&amp;#34;n&amp;#34;:&amp;#34;s&amp;#34;,&amp;#34;v&amp;#34;:22.22222222222222,&amp;#34;e&amp;#34;:41}]}&quot;&gt;&lt;span style=&quot;color: rgb(94 , 94 , 94)&quot;&gt;&lt;font style=&quot;font-size: 12px&quot;&gt;Is it within the excluded salary levels ?&lt;/font&gt;&lt;/span&gt;&lt;/span&gt;" style="rhombus;whiteSpace=wrap;html=1;shadow=0;fontFamily=Helvetica;fontSize=12;align=center;strokeWidth=1;spacing=6;spacingTop=-4;" vertex="1" parent="WIyWlLk6GJQsqaUBKTNV-1">
          <mxGeometry x="319.99" y="790" width="150.77" height="136" as="geometry" />
        </mxCell>
        <mxCell id="Q8JQTxx8B9CcguM59kPZ-41" style="edgeStyle=orthogonalEdgeStyle;rounded=0;orthogonalLoop=1;jettySize=auto;html=1;entryX=0.5;entryY=0;entryDx=0;entryDy=0;" edge="1" parent="WIyWlLk6GJQsqaUBKTNV-1" source="Q8JQTxx8B9CcguM59kPZ-36" target="Q8JQTxx8B9CcguM59kPZ-40">
          <mxGeometry relative="1" as="geometry" />
        </mxCell>
        <mxCell id="Q8JQTxx8B9CcguM59kPZ-36" value="Escalate to CEO" style="rounded=1;whiteSpace=wrap;html=1;" vertex="1" parent="WIyWlLk6GJQsqaUBKTNV-1">
          <mxGeometry x="610" y="828" width="120" height="60" as="geometry" />
        </mxCell>
        <mxCell id="Q8JQTxx8B9CcguM59kPZ-42" style="edgeStyle=orthogonalEdgeStyle;rounded=0;orthogonalLoop=1;jettySize=auto;html=1;entryX=1;entryY=0.5;entryDx=0;entryDy=0;" edge="1" parent="WIyWlLk6GJQsqaUBKTNV-1" source="Q8JQTxx8B9CcguM59kPZ-40" target="Q8JQTxx8B9CcguM59kPZ-0">
          <mxGeometry relative="1" as="geometry">
            <Array as="points">
              <mxPoint x="300" y="970" />
              <mxPoint x="300" y="1035" />
            </Array>
          </mxGeometry>
        </mxCell>
        <mxCell id="Q8JQTxx8B9CcguM59kPZ-43" value="Yes" style="edgeLabel;html=1;align=center;verticalAlign=middle;resizable=0;points=[];" vertex="1" connectable="0" parent="Q8JQTxx8B9CcguM59kPZ-42">
          <mxGeometry x="-0.8" y="-3" relative="1" as="geometry">
            <mxPoint as="offset" />
          </mxGeometry>
        </mxCell>
        <mxCell id="Q8JQTxx8B9CcguM59kPZ-44" style="edgeStyle=orthogonalEdgeStyle;rounded=0;orthogonalLoop=1;jettySize=auto;html=1;entryX=0;entryY=0.5;entryDx=0;entryDy=0;exitX=0.5;exitY=1;exitDx=0;exitDy=0;" edge="1" parent="WIyWlLk6GJQsqaUBKTNV-1" source="Q8JQTxx8B9CcguM59kPZ-40" target="Q8JQTxx8B9CcguM59kPZ-20">
          <mxGeometry relative="1" as="geometry" />
        </mxCell>
        <mxCell id="Q8JQTxx8B9CcguM59kPZ-45" value="No" style="edgeLabel;html=1;align=center;verticalAlign=middle;resizable=0;points=[];" vertex="1" connectable="0" parent="Q8JQTxx8B9CcguM59kPZ-44">
          <mxGeometry x="-0.4441" y="2" relative="1" as="geometry">
            <mxPoint x="-2.05" y="-38.23" as="offset" />
          </mxGeometry>
        </mxCell>
        <mxCell id="Q8JQTxx8B9CcguM59kPZ-47" style="edgeStyle=orthogonalEdgeStyle;rounded=0;orthogonalLoop=1;jettySize=auto;html=1;" edge="1" parent="WIyWlLk6GJQsqaUBKTNV-1" source="Q8JQTxx8B9CcguM59kPZ-40" target="Q8JQTxx8B9CcguM59kPZ-46">
          <mxGeometry relative="1" as="geometry" />
        </mxCell>
        <mxCell id="Q8JQTxx8B9CcguM59kPZ-49" value="Option" style="edgeLabel;html=1;align=center;verticalAlign=middle;resizable=0;points=[];" vertex="1" connectable="0" parent="Q8JQTxx8B9CcguM59kPZ-47">
          <mxGeometry x="-0.195" y="1" relative="1" as="geometry">
            <mxPoint as="offset" />
          </mxGeometry>
        </mxCell>
        <mxCell id="Q8JQTxx8B9CcguM59kPZ-40" value="Did he approve?" style="rhombus;whiteSpace=wrap;html=1;" vertex="1" parent="WIyWlLk6GJQsqaUBKTNV-1">
          <mxGeometry x="630" y="930" width="80" height="80" as="geometry" />
        </mxCell>
        <mxCell id="Q8JQTxx8B9CcguM59kPZ-51" style="edgeStyle=orthogonalEdgeStyle;rounded=0;orthogonalLoop=1;jettySize=auto;html=1;" edge="1" parent="WIyWlLk6GJQsqaUBKTNV-1" source="Q8JQTxx8B9CcguM59kPZ-46">
          <mxGeometry relative="1" as="geometry">
            <mxPoint x="840" y="890" as="targetPoint" />
          </mxGeometry>
        </mxCell>
        <UserObject label="Request Change" lucidchartObjectId="iMLb~negHjfY" id="Q8JQTxx8B9CcguM59kPZ-46">
          <mxCell style="html=1;overflow=block;blockSpacing=1;whiteSpace=wrap;shape=manualInput;size=15;whiteSpace=wrap;fontSize=16;fontColor=#333333;spacing=4;strokeColor=#0c7cba;strokeOpacity=100;rounded=1;absoluteArcSize=1;arcSize=9;strokeWidth=2;" vertex="1" parent="WIyWlLk6GJQsqaUBKTNV-1">
            <mxGeometry x="790" y="935" width="100" height="70" as="geometry" />
          </mxCell>
        </UserObject>
        <mxCell id="Q8JQTxx8B9CcguM59kPZ-52" style="edgeStyle=orthogonalEdgeStyle;rounded=0;orthogonalLoop=1;jettySize=auto;html=1;entryX=1;entryY=0.5;entryDx=0;entryDy=0;" edge="1" parent="WIyWlLk6GJQsqaUBKTNV-1" source="Q8JQTxx8B9CcguM59kPZ-50" target="Q8JQTxx8B9CcguM59kPZ-36">
          <mxGeometry relative="1" as="geometry" />
        </mxCell>
        <mxCell id="Q8JQTxx8B9CcguM59kPZ-50" value="Back to UnitHead" style="rounded=1;whiteSpace=wrap;html=1;" vertex="1" parent="WIyWlLk6GJQsqaUBKTNV-1">
          <mxGeometry x="780" y="828" width="120" height="60" as="geometry" />
        </mxCell>
      </root>
    </mxGraphModel>
  </diagram>
</mxfile>
